<svg width="64" height="16" viewBox="0 0 64 16" fill="none" xmlns="http://www.w3.org/2000/svg">
<path d="M18.4364 1.76773L17.5453 0.894867H15.8479L10.9506 15.002L11.5502 15.5894H13.4252L14.6907 11.9615L14.7321 11.8433H14.8596H19.1845H19.3126L19.3535 11.9627L19.3658 11.9979L20.5731 15.5894H22.4599L23.0589 15.0026L18.4364 1.76773ZM18.4463 9.51747H15.5645H15.3151L15.3955 9.28652L15.4215 9.21196L16.8367 5.09857L17.0057 4.60698L17.1746 5.09857L18.6152 9.28713L18.6944 9.51807H18.4463V9.51747Z" fill="#003DA5"/>
<path d="M1.07117 0.894867L0 1.94413V15.5894H2.78776V9.47383V9.29925H2.96598H9.07988V7.84629L8.18817 6.97282H2.96598H2.78776V6.79824V3.39527V3.2207H2.96598H9.63125V0.894867H1.07117Z" fill="#003DA5"/>
<path d="M27.1066 10.8897H25.2452C25.3411 11.6741 25.515 12.3663 25.7613 12.9513C26.041 13.6175 26.411 14.1739 26.8609 14.6055C27.3083 15.0353 27.838 15.3583 28.4339 15.5656C29.0398 15.7766 29.7136 15.8833 30.437 15.8833C31.2396 15.8833 31.9816 15.7839 32.6425 15.5875C33.2904 15.3947 33.8529 15.1104 34.3145 14.7443C34.7675 14.3836 35.1233 13.9284 35.3721 13.3907C35.6221 12.8501 35.7483 12.2154 35.7483 11.5044C35.7483 10.84 35.6128 10.2684 35.3449 9.80472C35.0695 9.32949 34.6933 8.91488 34.2267 8.573C33.7465 8.22143 33.1796 7.9135 32.541 7.65892C31.8944 7.40069 31.1951 7.16368 30.4624 6.95395C29.8677 6.77817 29.3906 6.55086 29.0428 6.27869C28.6419 5.96592 28.4383 5.51796 28.4383 4.94878C28.4383 4.36202 28.5992 3.86921 28.9172 3.4843C29.2489 3.08242 29.8102 2.87814 30.5843 2.87814C31.2415 2.87814 31.7966 3.07878 32.2341 3.47582C32.6221 3.82921 32.8789 4.39415 32.9996 5.15791H35.5429C35.4358 4.38081 35.2434 3.71949 34.9699 3.19092C34.6555 2.58234 34.2718 2.08832 33.8288 1.72402C33.3876 1.36093 32.8869 1.10331 32.3411 0.957229C31.7768 0.806295 31.1914 0.729919 30.601 0.729919C29.9166 0.729919 29.2656 0.820237 28.6654 0.999054C28.0775 1.17484 27.5608 1.44519 27.1295 1.80343C26.7013 2.15803 26.3578 2.61143 26.1072 3.15152C25.8572 3.69222 25.7309 4.33899 25.7309 5.07365C25.7309 5.81498 25.8943 6.44478 26.2155 6.94486C26.5509 7.46676 26.9754 7.91108 27.4766 8.26689C27.9909 8.63119 28.5546 8.93003 29.1524 9.15491C29.7693 9.38707 30.3541 9.5871 30.89 9.74895C31.5076 9.93443 32.0156 10.1599 32.4005 10.4181C32.8579 10.7249 33.0893 11.1261 33.0893 11.6117C33.0893 12.0142 33.0101 12.3524 32.8541 12.6173C32.6963 12.8828 32.4853 13.0877 32.2267 13.2271C31.9866 13.3568 31.7025 13.4459 31.3832 13.4926C31.0843 13.5362 30.7712 13.5574 30.4531 13.5574C29.5979 13.5574 28.955 13.2853 28.5422 12.7488C28.2978 12.4312 28.1177 12.0196 27.9989 11.5292L27.1066 10.8897Z" fill="#003DA5"/>
<path d="M49.6167 5.44458C49.6123 5.42821 49.6092 5.41063 49.6049 5.39426C49.3629 4.48503 48.996 3.67217 48.5139 2.97812C48.0393 2.29619 47.4298 1.7458 46.702 1.34331C45.9786 0.943851 45.1135 0.741394 44.1302 0.741394C43.1476 0.741394 42.2825 0.943851 41.5578 1.34331C40.8307 1.7458 40.2218 2.29558 39.7472 2.97812C39.2645 3.67338 38.8975 4.48624 38.6562 5.39426C38.6519 5.41184 38.6488 5.42942 38.6444 5.447V11.1764C38.6488 11.1934 38.6519 11.211 38.6562 11.2279C38.8963 12.1299 39.2633 12.9403 39.7472 13.6362C40.2218 14.3187 40.8313 14.8685 41.5584 15.271C42.2818 15.6699 43.1469 15.8729 44.1296 15.8729C45.1129 15.8729 45.9786 15.6705 46.702 15.271C47.4291 14.8685 48.0387 14.3181 48.5133 13.6362C48.9947 12.9434 49.3623 12.1329 49.6043 11.2279C49.6086 11.2116 49.6117 11.1946 49.616 11.1782V5.44458H49.6167ZM47.1983 10.0308C47.1253 10.6218 46.9824 11.1631 46.772 11.6407C46.551 12.1414 46.2268 12.5597 45.8078 12.884C45.3734 13.2198 44.8097 13.3907 44.1309 13.3907C43.4403 13.3907 42.8753 13.2198 42.4502 12.8815C42.0442 12.5578 41.7243 12.1414 41.499 11.6438C41.2812 11.1613 41.1376 10.6175 41.0714 10.0277C41.0077 9.45734 40.9755 8.88695 40.9755 8.33231C40.9755 7.77829 41.0077 7.20304 41.0714 6.62113C41.1376 6.01921 41.2812 5.467 41.4984 4.98026C41.7237 4.47533 42.0436 4.05526 42.4502 3.73218C42.8753 3.39394 43.4403 3.22301 44.1309 3.22301C44.8091 3.22301 45.3734 3.39334 45.8078 3.72915C46.2274 4.05405 46.5517 4.47654 46.772 4.9839C46.9824 5.46822 47.1259 6.018 47.1977 6.6181C47.2664 7.19637 47.3017 7.77344 47.3017 8.33292C47.3017 8.8918 47.267 9.46341 47.1983 10.0308Z" fill="#003DA5"/>
<path d="M63.6124 5.44458C63.608 5.42821 63.605 5.41063 63.6006 5.39426C63.3587 4.48503 62.9917 3.67217 62.5097 2.97812C62.035 2.29619 61.4255 1.7458 60.6978 1.34331C59.9744 0.943851 59.1093 0.741394 58.126 0.741394C57.1433 0.741394 56.2782 0.943851 55.5542 1.34331C54.8271 1.7458 54.2181 2.29558 53.7435 2.97812C53.2608 3.67338 52.8939 4.48624 52.6525 5.39426C52.6482 5.41184 52.6451 5.42942 52.6408 5.447V11.1764C52.6451 11.1934 52.6482 11.211 52.6525 11.2279C52.8926 12.1299 53.2596 12.9403 53.7435 13.6362C54.2181 14.3187 54.8277 14.8685 55.5548 15.271C56.2782 15.6699 57.1433 15.8729 58.126 15.8729C59.1093 15.8729 59.975 15.6705 60.6984 15.271C61.4255 14.8685 62.035 14.3181 62.5097 13.6362C62.9911 12.9434 63.3587 12.1329 63.6006 11.2279C63.605 11.2116 63.608 11.1946 63.6124 11.1782V5.44458ZM61.194 10.0308C61.121 10.6218 60.9781 11.1631 60.7677 11.6407C60.5468 12.1414 60.2225 12.5597 59.8036 12.884C59.3692 13.2198 58.8054 13.3907 58.1266 13.3907C57.436 13.3907 56.871 13.2198 56.4459 12.8815C56.0399 12.5578 55.72 12.1414 55.4948 11.6438C55.2769 11.1613 55.1334 10.6175 55.0672 10.0277C55.0034 9.45734 54.9712 8.88695 54.9712 8.33231C54.9712 7.77829 55.0034 7.20304 55.0672 6.62113C55.1334 6.01921 55.2769 5.467 55.4941 4.98026C55.7194 4.47533 56.0393 4.05526 56.4459 3.73218C56.871 3.39394 57.436 3.22301 58.1266 3.22301C58.8048 3.22301 59.3692 3.39334 59.8036 3.72915C60.2231 4.05405 60.5474 4.47654 60.7677 4.9839C60.9781 5.46822 61.1216 6.018 61.1934 6.6181C61.2621 7.19637 61.2974 7.77344 61.2974 8.33292C61.298 8.8918 61.2627 9.46341 61.194 10.0308Z" fill="#003DA5"/>
</svg>
