<svg width="82" height="18" viewBox="0 0 82 18" fill="none" xmlns="http://www.w3.org/2000/svg">
<path d="M5.71744 1.11377H4.601L0.00544605 15.2923L0 15.3092H0.897388L2.30398 10.9038H7.84866L9.25253 15.3002L9.25556 15.3095H10.1529L5.72047 1.12277L5.71744 1.11377ZM2.5194 10.2029L5.11777 1.97348H5.13865L7.67499 10.2029H2.5194Z" fill="#379CD7"/>
<path d="M14.4699 6.95312C13.5889 6.95312 12.7883 7.35251 12.2918 8.27433H12.2597V7.13743H11.395V15.2963H12.3559V9.8109C12.3559 8.53555 13.0927 7.72141 14.2297 7.72141C15.2067 7.72141 15.6871 8.27462 15.6871 9.39613V15.2963H16.648V9.13491C16.6483 7.59834 15.7673 6.95312 14.4699 6.95312Z" fill="#379CD7"/>
<path d="M23.359 13.9443V9.11953C23.359 7.8288 22.7025 6.95312 20.9567 6.95312C19.1468 6.95312 18.3299 7.89004 18.3299 9.56506H19.2908C19.2908 8.38201 19.7713 7.72112 20.9247 7.72112C21.8054 7.72112 22.3981 8.09002 22.3981 9.13491C22.3981 10.0721 22.2701 10.2564 21.5812 10.4254L19.7713 10.917C18.5541 11.2395 18.0576 12.0847 18.0576 13.1757C18.0576 14.5892 18.7302 15.4803 20.2197 15.4803C21.1806 15.4803 22.0296 15.1732 22.4139 14.0976H22.4459V14.3742C22.4459 15.2194 22.9264 15.3883 23.6792 15.3883C23.7911 15.3883 23.9515 15.3575 24.1275 15.296V14.6197H23.8552C23.5194 14.62 23.359 14.3895 23.359 13.9443ZM22.3981 12.4074C22.3981 13.8825 21.5972 14.712 20.4282 14.712C19.5952 14.712 19.0827 14.0822 19.0827 13.1142C19.0827 12.1308 19.5792 11.6696 20.5401 11.4241L21.341 11.2244C21.7255 11.117 22.2541 10.9786 22.366 10.6866H22.3981V12.4074Z" fill="#379CD7"/>
<path d="M26.3542 4.3252H25.3933V15.2957H26.3542V4.3252Z" fill="#379CD7"/>
<path d="M30.4864 14.2051H30.4544L28.5483 7.13725H27.5232L29.9739 15.3727L29.7337 16.141C29.4614 17.0016 29.0608 17.2318 28.4684 17.2318C28.2602 17.2318 28.0521 17.2164 27.8439 17.201V17.9693C28.036 17.9847 28.2285 18 28.4844 18C29.7978 18 30.2783 17.5542 30.7427 15.9564L33.2252 7.13696H32.2001L30.4864 14.2051Z" fill="#379CD7"/>
<path d="M35.5795 4.87842H34.6186V7.13712H33.4492V7.90511H34.6186V13.9591C34.6186 15.0498 35.1151 15.388 36.4125 15.388C36.7489 15.388 36.9731 15.3572 37.0851 15.2957V14.5274C36.8769 14.5889 36.6687 14.6197 36.4923 14.6197C35.8679 14.6197 35.5792 14.42 35.5792 13.7591V7.90511H37.0848V7.13712H35.5792V4.87842H35.5795Z" fill="#379CD7"/>
<path d="M39.1514 7.13696H38.1904V15.2955H39.1514V7.13696Z" fill="#379CD7"/>
<path d="M39.1514 4.3252H38.1904V5.89224H39.1514V4.3252Z" fill="#379CD7"/>
<path d="M43.556 7.72112C44.5811 7.72112 45.1096 8.27433 45.2216 9.56506H46.1825C46.0706 7.89033 45.1574 6.95312 43.5557 6.95312C41.6817 6.95312 40.6245 8.36663 40.6245 11.209C40.6245 14.2819 41.6817 15.4803 43.4755 15.4803C45.0612 15.4803 46.0382 14.328 46.1825 12.5918H45.2216C45.0455 14.0209 44.4368 14.712 43.4598 14.712C42.563 14.712 41.6499 14.2972 41.6499 11.2244C41.6499 8.33586 42.5149 7.72112 43.556 7.72112Z" fill="#379CD7"/>
<path d="M67.1548 0H63.3779V15.869H67.1548V0Z" fill="#379CD7"/>
<path d="M75.8099 0H69.6199V15.869H75.5739C80.5837 15.869 81.9999 13.3131 81.9999 7.71245C81.9999 3.02263 81.0293 0 75.8099 0ZM75.0756 13.513H73.397V2.35594H74.9969C77.8558 2.35594 78.2231 4.20046 78.2231 7.80126C78.2231 12.1129 77.6985 13.513 75.0756 13.513Z" fill="#379CD7"/>
<path d="M52.625 5.33887H48.8481V6.95206H52.625V5.33887Z" fill="#379CD7"/>
<path d="M57.4412 6.95206H61.2184C61.2035 6.38579 61.1706 5.84709 61.1128 5.33887H57.3359C57.3964 5.81894 57.4276 6.35763 57.4412 6.95206Z" fill="#379CD7"/>
<path d="M52.625 3.55493H48.8481V5.16813H52.625V3.55493Z" fill="#379CD7"/>
<path d="M48.8481 15.8687H54.8022C57.065 15.8687 58.5927 15.3454 59.5899 14.2576H48.8481V15.8687Z" fill="#379CD7"/>
<path d="M52.625 7.12256H48.8481V8.73575H52.625V7.12256Z" fill="#379CD7"/>
<path d="M52.625 8.90625H48.8481V10.5194H52.625V8.90625Z" fill="#379CD7"/>
<path d="M55.0382 0H48.8481V1.601H59.7033C58.7709 0.571206 57.3059 0 55.0382 0Z" fill="#379CD7"/>
<path d="M52.6253 2.356H54.2252C55.4615 2.356 56.2303 2.70226 56.7065 3.38492H60.7048C60.4991 2.77076 60.2201 2.23032 59.8477 1.77173H48.8481V3.38492H52.625V2.356H52.6253Z" fill="#379CD7"/>
<path d="M57.3112 5.16813H61.0919C61.0187 4.58821 60.9119 4.04893 60.7603 3.55493H56.8098C57.0594 3.98043 57.2165 4.51855 57.3112 5.16813Z" fill="#379CD7"/>
<path d="M56.8447 12.3034H60.6775C60.8358 11.8175 60.9556 11.2803 61.0424 10.6902H57.3043C57.2105 11.3595 57.0641 11.8912 56.8447 12.3034Z" fill="#379CD7"/>
<path d="M57.3271 10.5194H61.0674C61.1345 10.0191 61.1781 9.48065 61.2026 8.90625H57.4367C57.4194 9.51258 57.3852 10.0484 57.3271 10.5194Z" fill="#379CD7"/>
<path d="M52.625 10.6902H48.8481V12.3034H52.625V10.6902Z" fill="#379CD7"/>
<path d="M57.446 7.12256C57.4496 7.3414 57.4514 7.56722 57.4514 7.80087C57.4514 8.13001 57.4478 8.43999 57.4412 8.73575H61.211C61.2228 8.40632 61.2286 8.06528 61.2286 7.71205C61.2286 7.51207 61.2262 7.31644 61.2222 7.12256H57.446Z" fill="#379CD7"/>
<path d="M54.3039 13.5125H52.6253V12.4734H48.8481V14.0866H59.7393C60.1094 13.6373 60.3992 13.1006 60.6207 12.4734H56.7449C56.2735 13.2144 55.5114 13.5125 54.3039 13.5125Z" fill="#379CD7"/>
</svg>
